<svg width="85" height="72" viewBox="0 0 85 72" fill="none" xmlns="http://www.w3.org/2000/svg">
<path d="M20.3125 37.5H4.6875C4.2731 37.5 3.87567 37.3354 3.58265 37.0424C3.28962 36.7493 3.125 36.3519 3.125 35.9375C3.125 35.5231 3.28962 35.1257 3.58265 34.8326C3.87567 34.5396 4.2731 34.375 4.6875 34.375H19.4766L25.2617 25.6953C25.4044 25.481 25.5977 25.3052 25.8247 25.1837C26.0516 25.0621 26.3051 24.9985 26.5625 24.9985C26.8199 24.9985 27.0734 25.0621 27.3003 25.1837C27.5273 25.3052 27.7206 25.481 27.8633 25.6953L39.0625 42.4922L44.0117 35.0703C44.1545 34.8563 44.348 34.6808 44.5749 34.5595C44.8018 34.4382 45.0552 34.3748 45.3125 34.375H54.6875C55.1019 34.375 55.4993 34.5396 55.7924 34.8326C56.0854 35.1257 56.25 35.5231 56.25 35.9375C56.25 36.3519 56.0854 36.7493 55.7924 37.0424C55.4993 37.3354 55.1019 37.5 54.6875 37.5H46.1484L40.3633 46.1797C40.2206 46.394 40.0273 46.5698 39.8003 46.6913C39.5734 46.8129 39.3199 46.8765 39.0625 46.8765C38.8051 46.8765 38.5516 46.8129 38.3247 46.6913C38.0977 46.5698 37.9044 46.394 37.7617 46.1797L26.5625 29.3789L21.6133 36.8008C21.4709 37.0155 21.2777 37.1918 21.0507 37.3138C20.8238 37.4358 20.5702 37.4997 20.3125 37.5ZM61.7188 0C53.3438 0 46.125 3.98047 42.1875 10.5742C38.25 3.98047 31.0312 0 22.6562 0C16.6497 0.00723624 10.8912 2.39655 6.64385 6.64385C2.39655 10.8912 0.00723624 16.6497 0 22.6562V23.4883C0.013468 23.9027 0.191004 24.2948 0.493553 24.5783C0.796102 24.8618 1.19888 25.0135 1.61328 25C2.02768 24.9865 2.41976 24.809 2.70326 24.5064C2.98676 24.2039 3.13847 23.8011 3.125 23.3867V22.6562C3.1312 17.4781 5.19094 12.5139 8.85242 8.85242C12.5139 5.19095 17.4781 3.1312 22.6562 3.125C30.9023 3.125 37.832 7.54297 40.7422 14.6523C40.8599 14.9389 41.0602 15.184 41.3175 15.3565C41.5749 15.529 41.8777 15.6211 42.1875 15.6211C42.4973 15.6211 42.8001 15.529 43.0575 15.3565C43.3148 15.184 43.5151 14.9389 43.6328 14.6523C46.543 7.54297 53.4727 3.125 61.7188 3.125C66.8969 3.1312 71.8611 5.19095 75.5226 8.85242C79.1841 12.5139 81.2438 17.4781 81.25 22.6562C81.25 45.3125 47.6562 65.4141 42.1875 68.5234C38.8789 66.6406 25.1953 58.5195 14.9883 47.3828C14.706 47.0875 14.3193 46.9145 13.9109 46.9008C13.5026 46.8872 13.1052 47.034 12.8038 47.3098C12.5025 47.5857 12.3211 47.9686 12.2986 48.3765C12.2762 48.7844 12.4144 49.1849 12.6836 49.4922C24.6836 62.5859 40.7695 71.3242 41.4453 71.6875C41.6733 71.8106 41.9284 71.875 42.1875 71.875C42.4466 71.875 42.7017 71.8106 42.9297 71.6875C50.2367 67.5775 57.1306 62.7727 63.5156 57.3398C77.3438 45.4961 84.375 33.8242 84.375 22.6562C84.3678 16.6497 81.9784 10.8912 77.7311 6.64385C73.4838 2.39655 67.7253 0.00723624 61.7188 0Z" fill="black"/>
</svg>
