<svg width="75" height="96" viewBox="0 0 75 96" fill="none" xmlns="http://www.w3.org/2000/svg">
<path d="M55.0714 8.64258H65.7857C67.6801 8.64258 69.4969 9.39513 70.8365 10.7347C72.176 12.0742 72.9286 13.891 72.9286 15.7854V87.214C72.9286 89.1084 72.176 90.9252 70.8365 92.2648C69.4969 93.6043 67.6801 94.3569 65.7857 94.3569H8.64286C6.74845 94.3569 4.93164 93.6043 3.59209 92.2648C2.25255 90.9252 1.5 89.1084 1.5 87.214V15.7854C1.5 13.891 2.25255 12.0742 3.59209 10.7347C4.93164 9.39513 6.74845 8.64258 8.64286 8.64258H19.3571" stroke="black" stroke-width="3" stroke-linecap="round" stroke-linejoin="round"/>
<path d="M47.9288 1.5H26.5003C24.6058 1.5 22.789 2.25255 21.4495 3.59209C20.1099 4.93164 19.3574 6.74845 19.3574 8.64286V12.2143C19.3574 14.1087 20.1099 15.9255 21.4495 17.265C22.789 18.6046 24.6058 19.3571 26.5003 19.3571H47.9288C49.8232 19.3571 51.64 18.6046 52.9796 17.265C54.3191 15.9255 55.0717 14.1087 55.0717 12.2143V8.64286C55.0717 6.74845 54.3191 4.93164 52.9796 3.59209C51.64 2.25255 49.8232 1.5 47.9288 1.5ZM32.236 35.1429C31.4214 35.1429 30.6401 35.4665 30.0641 36.0425C29.4881 36.6185 29.1645 37.3997 29.1645 38.2143V46.8357H20.5431C19.7285 46.8357 18.9473 47.1593 18.3713 47.7353C17.7953 48.3113 17.4717 49.0926 17.4717 49.9071V59.8714C17.4717 61.5643 18.8502 62.9429 20.5431 62.9429H29.1645V71.5643C29.1645 73.2571 30.5431 74.6357 32.236 74.6357H42.2003C43.0148 74.6357 43.7961 74.3121 44.3721 73.7361C44.9481 73.1601 45.2717 72.3789 45.2717 71.5643V62.9286H53.8931C54.7077 62.9286 55.4889 62.605 56.0649 62.029C56.6409 61.453 56.9645 60.6717 56.9645 59.8571V49.9071C56.9626 49.0938 56.6382 48.3144 56.0624 47.7399C55.4866 47.1655 54.7065 46.8429 53.8931 46.8429H45.2717V38.2071C45.2698 37.3938 44.9454 36.6144 44.3696 36.0399C43.7938 35.4655 43.0136 35.1429 42.2003 35.1429H32.236Z" stroke="black" stroke-width="3" stroke-linecap="round" stroke-linejoin="round"/>
</svg>
