<svg width="79" height="79" viewBox="0 0 79 79" fill="none" xmlns="http://www.w3.org/2000/svg">
<path d="M25 42.1875C24.382 42.1875 23.7778 42.0042 23.2639 41.6608C22.75 41.3175 22.3494 40.8294 22.1129 40.2584C21.8764 39.6874 21.8145 39.059 21.9351 38.4528C22.0556 37.8467 22.3533 37.2898 22.7903 36.8528C23.2273 36.4158 23.7842 36.1181 24.3904 35.9975C24.9966 35.877 25.6249 35.9389 26.1959 36.1754C26.7669 36.4119 27.255 36.8124 27.5984 37.3263C27.9417 37.8402 28.125 38.4444 28.125 39.0625C28.125 39.8913 27.7958 40.6862 27.2097 41.2722C26.6237 41.8583 25.8288 42.1875 25 42.1875ZM53.125 35.9375C52.507 35.9375 51.9028 36.1208 51.3889 36.4642C50.875 36.8075 50.4744 37.2956 50.2379 37.8666C50.0014 38.4376 49.9395 39.066 50.0601 39.6722C50.1806 40.2784 50.4783 40.8352 50.9153 41.2722C51.3523 41.7093 51.9092 42.0069 52.5154 42.1275C53.1215 42.248 53.7499 42.1861 54.3209 41.9496C54.8919 41.7131 55.38 41.3126 55.7234 40.7987C56.0667 40.2848 56.25 39.6806 56.25 39.0625C56.25 38.2337 55.9208 37.4388 55.3347 36.8528C54.7487 36.2667 53.9538 35.9375 53.125 35.9375ZM49.168 53.3672C46.1347 55.2529 42.6342 56.2523 39.0625 56.2523C35.4908 56.2523 31.9904 55.2529 28.957 53.3672C28.6076 53.1703 28.1958 53.1153 27.807 53.2136C27.4181 53.312 27.082 53.5561 26.8681 53.8954C26.6543 54.2348 26.5791 54.6433 26.6582 55.0366C26.7373 55.4298 26.9646 55.7775 27.293 56.0078C30.8247 58.207 34.902 59.3727 39.0625 59.3727C43.223 59.3727 47.3003 58.207 50.8321 56.0078C51.0165 55.9039 51.1778 55.7636 51.3064 55.5955C51.4349 55.4273 51.528 55.2348 51.5798 55.0296C51.6317 54.8244 51.6414 54.6108 51.6082 54.4017C51.5751 54.1927 51.4998 53.9926 51.3869 53.8135C51.2741 53.6344 51.126 53.4801 50.9518 53.36C50.7775 53.2399 50.5806 53.1564 50.3731 53.1147C50.1656 53.073 49.9518 53.0738 49.7446 53.1172C49.5375 53.1606 49.3413 53.2457 49.168 53.3672ZM78.125 39.0625C78.125 46.7883 75.834 54.3407 71.5418 60.7645C67.2496 67.1883 61.1488 72.195 54.0111 75.1515C46.8733 78.1081 39.0192 78.8817 31.4418 77.3744C23.8644 75.8672 16.9041 72.1469 11.4412 66.6839C5.97817 61.2209 2.25783 54.2606 0.750593 46.6832C-0.756642 39.1058 0.0169246 31.2517 2.97347 24.1139C5.93002 16.9762 10.9368 10.8755 17.3606 6.58322C23.7844 2.29098 31.3367 0 39.0625 0C49.419 0.0113734 59.3481 4.13053 66.6713 11.4537C73.9945 18.7769 78.1136 28.706 78.125 39.0625ZM75 39.0625C74.9911 29.6645 71.3055 20.6429 64.7312 13.9271C58.157 7.21121 49.216 3.33416 39.8203 3.125C34.4766 10.1836 34.375 17.1211 34.375 17.1875C34.375 18.4307 34.8689 19.623 35.748 20.5021C36.627 21.3811 37.8193 21.875 39.0625 21.875C40.3057 21.875 41.498 21.3811 42.3771 20.5021C43.2562 19.623 43.75 18.4307 43.75 17.1875C43.75 16.7731 43.9146 16.3757 44.2077 16.0826C44.5007 15.7896 44.8981 15.625 45.3125 15.625C45.7269 15.625 46.1243 15.7896 46.4174 16.0826C46.7104 16.3757 46.875 16.7731 46.875 17.1875C46.875 19.2595 46.0519 21.2466 44.5868 22.7118C43.1217 24.1769 41.1345 25 39.0625 25C36.9905 25 35.0034 24.1769 33.5382 22.7118C32.0731 21.2466 31.25 19.2595 31.25 17.1875C31.25 16.8828 31.3125 10.4258 35.9375 3.26563C28.9892 3.87213 22.3675 6.48746 16.88 10.7927C11.3925 15.0979 7.27634 20.9069 5.03359 27.5112C2.79084 34.1156 2.51839 41.2298 4.24947 47.9864C5.98055 54.7429 9.64034 60.8497 14.7825 65.562C19.9247 70.2743 26.327 73.3884 33.2086 74.5245C40.0902 75.6606 47.1537 74.7697 53.5377 71.9604C59.9216 69.151 65.3501 64.5447 69.1611 58.7031C72.9721 52.8616 75.0009 46.0373 75 39.0625Z" fill="black"/>
</svg>
