<svg width="70" height="87" viewBox="0 0 70 87" fill="none" xmlns="http://www.w3.org/2000/svg">
<path d="M68.1667 84.833V72.333C68.1667 60.5497 68.1667 54.6538 64.5042 50.9955C60.8458 47.333 54.95 47.333 43.1667 47.333L34.8333 55.6663L26.5 47.333C14.7167 47.333 8.82083 47.333 5.1625 50.9955C1.5 54.6538 1.5 60.5497 1.5 72.333V84.833M51.5 47.333V70.2497" stroke="black" stroke-width="3" stroke-linecap="round" stroke-linejoin="round"/>
<path d="M20.2503 47.3333V64M20.2503 64C22.4605 64 24.5801 64.878 26.1429 66.4408C27.7057 68.0036 28.5837 70.1232 28.5837 72.3333V76.5M20.2503 64C18.0402 64 15.9206 64.878 14.3578 66.4408C12.795 68.0036 11.917 70.1232 11.917 72.3333V76.5M49.417 20.25V16.0833C49.417 14.1682 49.0398 12.2719 48.3069 10.5025C47.574 8.7332 46.4998 7.12555 45.1456 5.77136C43.7914 4.41717 42.1838 3.34297 40.4145 2.61009C38.6451 1.87721 36.7488 1.5 34.8337 1.5C32.9185 1.5 31.0222 1.87721 29.2529 2.61009C27.4835 3.34297 25.8759 4.41717 24.5217 5.77136C23.1675 7.12555 22.0933 8.7332 21.3604 10.5025C20.6275 12.2719 20.2503 14.1682 20.2503 16.0833V20.25C20.2503 22.1651 20.6275 24.0615 21.3604 25.8308C22.0933 27.6001 23.1675 29.2078 24.5217 30.562C25.8759 31.9162 27.4835 32.9904 29.2529 33.7232C31.0222 34.4561 32.9185 34.8333 34.8337 34.8333C36.7488 34.8333 38.6451 34.4561 40.4145 33.7232C42.1838 32.9904 43.7914 31.9162 45.1456 30.562C46.4998 29.2078 47.574 27.6001 48.3069 25.8308C49.0398 24.0615 49.417 22.1651 49.417 20.25Z" stroke="black" stroke-width="3" stroke-linecap="round" stroke-linejoin="round"/>
<path d="M54.625 73.375C54.625 74.2038 54.2958 74.9987 53.7097 75.5847C53.1237 76.1708 52.3288 76.5 51.5 76.5C50.6712 76.5 49.8763 76.1708 49.2903 75.5847C48.7042 74.9987 48.375 74.2038 48.375 73.375C48.375 72.5462 48.7042 71.7513 49.2903 71.1653C49.8763 70.5792 50.6712 70.25 51.5 70.25C52.3288 70.25 53.1237 70.5792 53.7097 71.1653C54.2958 71.7513 54.625 72.5462 54.625 73.375Z" stroke="black" stroke-width="1.5"/>
</svg>
